PathFileType	4	(X/Y/Z)	s10c0203.trc
DataRate	CameraRate	NumFrames	NumMarkers	Units	OrigDataRate	OrigDataStartFrame	OrigNumFrames
200	200	4	49	mm	200	500	2000
Frame#	Time	racr			lacr			c7			jug			rlel			rdr			llel			ldr			s2			lic			ric			lasi			rasi			rpsi			lpsi			rgt			lgt			rth1			rth2			rth3			rth4			rlfc			rmfc			rsh1			rsh2			rsh3			rsh4			rlmal			rmmal			rcal			rtoe			rmt5			lth1			lth2			lth4			lth3			llfc			lmfc			llmal			lcal			lmt5			lsh1			lsh2			lsh3			lsh4			ltoe			SBIKE			LBIKE			RBIKE			
		X1	Y1	Z1	X2	Y2	Z2	X3	Y3	Z3	X4	Y4	Z4	X5	Y5	Z5	X6	Y6	Z6	X7	Y7	Z7	X8	Y8	Z8	X9	Y9	Z9	X10	Y10	Z10	X11	Y11	Z11	X12	Y12	Z12	X13	Y13	Z13	X14	Y14	Z14	X15	Y15	Z15	X16	Y16	Z16	X17	Y17	Z17	X18	Y18	Z18	X19	Y19	Z19	X20	Y20	Z20	X21	Y21	Z21	X22	Y22	Z22	X23	Y23	Z23	X24	Y24	Z24	X25	Y25	Z25	X26	Y26	Z26	X27	Y27	Z27	X28	Y28	Z28	X29	Y29	Z29	X30	Y30	Z30	X31	Y31	Z31	X32	Y32	Z32	X33	Y33	Z33	X34	Y34	Z34	X35	Y35	Z35	X36	Y36	Z36	X37	Y37	Z37	X38	Y38	Z38	X39	Y39	Z39	X40	Y40	Z40	X41	Y41	Z41	X42	Y42	Z42	X43	Y43	Z43	X44	Y44	Z44	X45	Y45	Z45	X46	Y46	Z46	X47	Y47	Z47	X48	Y48	Z48	X49	Y49	Z49	
500	2.5000	371.891542	1242.283574	-42.727613	432.419870	1234.172831	-304.722818	340.056168	1300.740936	-191.480258	331.166550	1145.961195	-180.517028	399.095895	994.570539	56.854382	588.445930	913.927910	-24.726888	452.798287	1049.509963	-517.111863	605.068297	914.925008	-432.995840	-179.987347	1092.877395	-240.657604	-9.159159	1108.683800	-395.562476	-18.797434	1130.656198	-100.139483	23.150406	1027.730016	-363.046987	2.885464	1057.980484	-103.082350	-141.671230	1163.611010	-195.012284	-129.515405	1163.708833	-303.421326	-102.193307	1035.460448	-42.531936	-106.387715	966.142449	-420.118766	25.281021	963.275533	-29.381843	111.848055	959.271601	-49.569183	184.472817	915.121386	-54.710147	119.611294	994.443125	-61.679171	290.792597	871.360205	-83.608102	266.873144	852.530580	-201.845887	230.169696	775.530006	-47.638117	211.949030	688.726507	-57.767429	156.244664	623.232087	-53.450697	236.625973	678.926856	-86.414447	109.347567	531.019374	-64.223482	125.176699	544.995523	-149.380729	54.431141	494.611478	-106.981565	296.129726	520.754199	-103.031965	222.375632	478.405659	-39.076526	-24.562639	859.094798	-432.544203	48.296421	813.481618	-418.518825	74.222232	838.688294	-412.803635	88.905978	735.621110	-404.754617	159.667215	653.856444	-382.546201	163.371051	651.722772	-267.029079	26.914497	297.415862	-383.563653	-25.802589	293.251469	-336.860392	94.359375	162.148156	-399.233359	98.377376	547.877472	-414.908746	101.440437	462.290819	-399.971633	59.213365	383.675950	-397.788081	129.423632	458.837263	-374.477896	174.843557	150.061381	-350.253298	-218.454907	830.232532	-213.688756	-103.959636	80.522881	-418.411588	-103.988046	80.542331	-18.364232	
501	2.5050	371.948935	1240.370440	-41.557391	433.424864	1231.517104	-303.644607	340.951007	1298.756677	-190.217466	331.012036	1143.907695	-179.421108	398.276026	992.693052	58.005815	587.826949	913.933303	-24.660500	452.518414	1048.786115	-517.260635	604.791614	914.844979	-432.920480	-179.921092	1092.874291	-240.516440	-9.125931	1108.340331	-394.878328	-18.500139	1130.077845	-99.146119	22.875891	1027.277235	-362.540418	3.161210	1057.192790	-102.244075	-141.367869	1163.058831	-194.318733	-129.414902	1163.815701	-302.810171	-101.946139	1033.993798	-42.365634	-106.359177	965.745955	-419.765936	25.803489	961.856511	-29.248676	112.345745	957.492562	-49.406522	184.663340	912.882159	-54.700046	120.333745	992.647274	-61.327928	290.705565	868.697986	-83.702903	267.010020	849.990000	-201.744386	231.735293	772.061547	-47.602909	214.247474	685.093511	-58.044187	159.298003	619.030094	-53.439791	238.701774	675.852542	-86.939549	112.913940	526.737795	-64.132538	128.403182	540.967346	-149.334453	58.461480	489.509440	-106.987453	299.822603	518.998257	-103.038974	226.632584	475.639008	-39.032989	-23.254754	859.616489	-432.181116	49.953197	814.780767	-417.723346	75.525484	840.243694	-411.742892	91.275910	737.294309	-404.148197	161.130825	655.470124	-381.922691	164.215025	652.969827	-266.421292	22.751277	300.204860	-383.258679	-30.035418	296.012636	-336.545226	89.756731	164.671244	-399.025223	97.751036	549.946010	-414.099862	99.564935	464.391663	-399.838639	55.949722	386.404452	-397.515650	127.452329	460.398464	-374.364728	170.187877	152.247458	-350.210286	-218.522640	830.188277	-213.492503	-103.960287	80.511968	-418.382896	-103.997693	80.552734	-18.358164	
502	2.5100	372.107087	1238.471394	-40.371011	434.527200	1228.854767	-303.125169	342.065083	1296.746062	-189.227688	331.011147	1141.829076	-178.750805	397.543985	990.778682	59.171118	587.192052	913.910676	-24.635205	452.179276	1047.950935	-517.450162	604.570379	914.731500	-432.945001	-179.823886	1092.894321	-240.275674	-9.069894	1108.097976	-394.221297	-18.115175	1129.334052	-98.243052	22.672775	1026.830875	-362.049527	3.475423	1056.545056	-101.383718	-142.658365	1164.803298	-192.434351	-129.213259	1163.917759	-302.254518	-101.625268	1032.665365	-42.188615	-106.237766	965.590564	-419.488000	26.465870	960.387576	-28.972735	112.908024	955.610766	-49.097147	184.982909	910.508979	-54.703657	121.163316	990.788505	-60.894653	290.711752	866.241439	-83.724070	267.178368	847.687309	-201.631470	233.196112	768.814220	-47.607254	216.787471	681.692758	-57.766264	162.477338	615.156800	-53.104704	240.881485	672.750560	-87.391470	116.615272	522.301165	-63.910161	131.789432	536.820808	-149.351677	62.514188	484.525134	-106.905712	303.498755	516.993811	-103.016292	230.857634	472.636449	-39.001882	-21.998119	860.269956	-431.896165	51.541364	816.010813	-417.010433	76.809988	841.631225	-410.689194	94.127996	739.331309	-404.302006	162.380141	657.074508	-381.404587	164.614574	654.044697	-265.993168	18.510996	303.032709	-382.942712	-34.421808	298.794761	-336.291524	85.193796	167.216903	-398.984389	96.911985	552.083576	-413.746256	97.470410	466.492916	-399.711515	52.630934	389.187648	-397.290853	125.505223	462.025986	-374.477026	165.584687	154.732575	-350.177560	-218.213550	830.241411	-213.679301	-103.958510	80.498308	-418.364098	-103.979541	80.542347	-18.359284	
503	2.5150	372.297864	1236.596004	-39.153252	435.519485	1226.181026	-302.148489	343.092883	1294.804441	-188.071904	330.872075	1139.842795	-177.747335	396.837600	988.930452	60.368713	586.519523	913.855871	-24.574312	451.836921	1047.193900	-517.593626	604.317844	914.618845	-432.979378	-179.862036	1093.393507	-240.064858	-8.976350	1107.950486	-393.558726	-17.605549	1128.654227	-97.378484	22.477744	1026.520020	-361.516868	3.770125	1055.713540	-100.663449	-143.480473	1165.855921	-191.205272	-128.969655	1164.059667	-301.522941	-101.157197	1031.346081	-41.934713	-106.123969	965.516392	-419.235654	27.185880	958.779293	-28.619100	113.638234	953.722334	-48.663804	185.383657	908.153053	-54.653898	122.118339	988.851840	-60.327524	290.737513	863.679652	-83.670984	267.407152	845.073667	-203.052601	234.715839	765.580210	-47.429479	219.031394	678.425052	-57.807570	165.411403	611.282633	-53.013031	243.024056	669.747554	-87.515094	120.225386	517.926897	-63.633430	135.224802	532.808302	-149.389233	66.493577	479.837168	-106.661296	307.184617	514.782011	-102.939790	235.080031	469.524105	-38.975332	-20.812542	860.924150	-431.593714	53.016982	817.309156	-416.436095	78.014152	843.110111	-409.857721	96.164720	740.932171	-403.797820	163.416043	658.542455	-381.012310	164.843344	655.010649	-265.436556	14.126491	306.046570	-382.703661	-38.756354	301.713123	-336.114831	80.662931	170.017345	-398.861830	95.821911	554.107304	-413.395257	95.306950	468.536593	-399.719470	49.343529	391.737359	-397.103889	123.411603	463.537009	-374.643091	161.109478	157.390473	-350.098301	-218.209908	830.225341	-213.605866	-103.962001	80.463219	-418.416701	-103.971407	80.528949	-18.371941	
